<svg id="information-svgrepo-com_2_" data-name="information-svgrepo-com (2)" xmlns="http://www.w3.org/2000/svg" width="15.911" height="15.911" viewBox="0 0 15.911 15.911">
  <path id="Path_4828" data-name="Path 4828" d="M7.955,0a7.955,7.955,0,1,0,7.955,7.955A7.964,7.964,0,0,0,7.955,0Zm0,14.893a6.938,6.938,0,1,1,6.938-6.938A6.946,6.946,0,0,1,7.955,14.893Z" fill="#060000"/>
  <path id="Path_4829" data-name="Path 4829" d="M107.891,114.833l-.951.557v-4.058a.509.509,0,0,0-.743-.452l-1.355.7a.509.509,0,1,0,.468.9l.613-.318v4.108a.509.509,0,0,0,.766.439l1.717-1a.509.509,0,0,0-.514-.878Z" transform="translate(-98.656 -104.559)" fill="#060000"/>
  <circle id="Ellipse_2215" data-name="Ellipse 2215" cx="0.703" cy="0.703" r="0.703" transform="translate(7.072 4.193)" fill="#060000"/>
</svg>
