<svg id="_7364060301582634778" data-name="7364060301582634778" xmlns="http://www.w3.org/2000/svg" width="18.221" height="17.006" viewBox="0 0 18.221 17.006">
  <g id="Group_2334" data-name="Group 2334" transform="translate(0 0)">
    <path id="Path_4801" data-name="Path 4801" d="M38.974,23.13a2.43,2.43,0,1,0-1.718-.712A2.34,2.34,0,0,0,38.974,23.13Z" transform="translate(-35.33 -18.271)" fill="#060000"/>
    <path id="Path_4802" data-name="Path 4802" d="M165.517,97.584a3.643,3.643,0,1,0-1.068-2.577A3.511,3.511,0,0,0,165.517,97.584Z" transform="translate(-158.983 -88.934)" fill="#060000"/>
    <path id="Path_4803" data-name="Path 4803" d="M367.881,23.13a2.43,2.43,0,1,0-1.718-.712A2.34,2.34,0,0,0,367.881,23.13Z" transform="translate(-353.305 -18.271)" fill="#060000"/>
    <path id="Path_4804" data-name="Path 4804" d="M383.311,164.456a1.818,1.818,0,0,0-.413.2,6.225,6.225,0,0,1-.925.4,3.333,3.333,0,0,1-1.129.2,3.81,3.81,0,0,1-1.262-.218,4.761,4.761,0,0,1,.047.626,4.177,4.177,0,0,1-.769,2.429,3.272,3.272,0,0,1,2.515,1.215h1.272a2.176,2.176,0,0,0,1.309-.385,1.3,1.3,0,0,0,.531-1.124Q384.488,164.456,383.311,164.456Z" transform="translate(-366.267 -159.597)" fill="#060000"/>
    <path id="Path_4805" data-name="Path 4805" d="M86.286,295.78a8.036,8.036,0,0,0-.252-1.03,4.892,4.892,0,0,0-.408-.925,3.346,3.346,0,0,0-.589-.769,2.481,2.481,0,0,0-.811-.508,2.851,2.851,0,0,0-1.058-.19,1.118,1.118,0,0,0-.408.2q-.313.2-.693.455a4.407,4.407,0,0,1-4.593,0q-.38-.251-.693-.455a1.118,1.118,0,0,0-.408-.2,2.851,2.851,0,0,0-1.058.19,2.477,2.477,0,0,0-.811.508,3.338,3.338,0,0,0-.588.769,4.882,4.882,0,0,0-.408.925,8.06,8.06,0,0,0-.251,1.03,9.648,9.648,0,0,0-.133,1.034q-.033.479-.033.982a2.364,2.364,0,0,0,.693,1.8,2.56,2.56,0,0,0,1.841.66h8.294a2.561,2.561,0,0,0,1.841-.66,2.365,2.365,0,0,0,.693-1.8q0-.5-.033-.982A9.811,9.811,0,0,0,86.286,295.78Z" transform="translate(-70.661 -283.249)" fill="#060000"/>
    <path id="Path_4806" data-name="Path 4806" d="M5.627,168.1a4.177,4.177,0,0,1-.769-2.429,4.74,4.74,0,0,1,.047-.626,3.813,3.813,0,0,1-1.262.218,3.333,3.333,0,0,1-1.129-.2,6.237,6.237,0,0,1-.925-.4,1.812,1.812,0,0,0-.413-.2Q0,164.455,0,167.8a1.3,1.3,0,0,0,.531,1.124,2.176,2.176,0,0,0,1.309.384H3.113A3.272,3.272,0,0,1,5.627,168.1Z" transform="translate(0 -159.596)" fill="#060000"/>
  </g>
</svg>
