<svg xmlns="http://www.w3.org/2000/svg" width="15.911" height="15.911" viewBox="0 0 15.911 15.911">
  <path id="help-svgrepo-com" d="M7.955,15.911a7.955,7.955,0,1,1,7.955-7.955A7.955,7.955,0,0,1,7.955,15.911Zm0-1.591A6.364,6.364,0,1,0,1.591,7.955,6.364,6.364,0,0,0,7.955,14.32Zm0-2.387a.8.8,0,1,1,.8-.8A.8.8,0,0,1,7.955,11.933ZM8.97,9.373a.8.8,0,0,1-.98-1.254L8.3,7.874A1.193,1.193,0,1,0,6.834,5.994l-.313.245a.8.8,0,1,1-.979-1.254l.313-.245A2.784,2.784,0,0,1,9.284,9.128l-.313.245Z" fill="#060000"/>
</svg>
