<svg id="_34d289bf4cd13238f8f7349304ffbf2a" data-name="34d289bf4cd13238f8f7349304ffbf2a" xmlns="http://www.w3.org/2000/svg" width="17.76" height="17.527" viewBox="0 0 17.76 17.527">
  <g id="Group_294" data-name="Group 294" transform="translate(0 0)">
    <path id="Path_290" data-name="Path 290" d="M287.927,36.719a.823.823,0,0,0,.823-.832V20.132a.83.83,0,0,0-.823-.832h-2.5a.823.823,0,0,0-.823.832V35.888a.83.83,0,0,0,.823.832Zm-2.5-16.586c0-.007,2.49,0,2.49,0s-.005,15.756-.005,15.756-2.49,0-2.49,0S285.428,20.134,285.428,20.134Z" transform="translate(-279.624 -19.247)" fill="#060000"/>
    <path id="Path_291" data-name="Path 291" d="M545.617,33.888l2.419-.647a.824.824,0,0,0,.58-1.017l-4.081-15.218a.83.83,0,0,0-1.009-.591l-2.419.647a.824.824,0,0,0-.58,1.017L544.6,33.3A.836.836,0,0,0,545.617,33.888ZM543.734,17.22c-.007,0,4.073,15.221,4.073,15.221s-2.4.647-2.4.647-4.074-15.221-4.074-15.221S543.734,17.22,543.734,17.22Z" transform="translate(-530.885 -16.388)" fill="#060000"/>
    <path id="Path_292" data-name="Path 292" d="M13.325,36.719a.823.823,0,0,0,.823-.832V20.132a.83.83,0,0,0-.823-.832h-2.5a.823.823,0,0,0-.823.832V35.888a.83.83,0,0,0,.823.832Zm-2.5-16.586c0-.007,2.49,0,2.49,0s-.005,15.756-.005,15.756-2.49,0-2.49,0S10.828,20.134,10.828,20.134Z" transform="translate(-10 -19.247)" fill="#060000"/>
  </g>
</svg>
