<svg id="_71fd702ab7fce725dd104dade09f086a" data-name="71fd702ab7fce725dd104dade09f086a" xmlns="http://www.w3.org/2000/svg" width="38.641" height="24.848" viewBox="0 0 38.641 24.848">
  <path id="Path_293" data-name="Path 293" d="M16.49,209.791l25.705-.012a2.122,2.122,0,0,0,2.066-1.715l4.29-13.967a1.947,1.947,0,0,0-2.062-2.614H19.822c-.793,0-1.569,1.143-1.569,1.143l-2.5,15.761S15.583,209.791,16.49,209.791Zm-2.689,0a1.392,1.392,0,0,1-1.159-1.4l-2.563-21.719S10,187.812,10,186.263s1.234-1.305,1.234-1.305H21.967a1.17,1.17,0,0,1,1.325,1.388c0,1.144,1.483,1.305,1.483,1.305l18.276-.083c1.321,0,1.159,1.388,1.159,1.388,0,1.144-1.242,1.226-1.242,1.226h-23.8c-3.056,0-2.642,2.614-2.642,2.614Z" transform="translate(-10 -184.943)" fill="#585d5e"/>
</svg>
