<svg id="share-svgrepo-com_1_" data-name="share-svgrepo-com (1)" xmlns="http://www.w3.org/2000/svg" width="14.047" height="14.865" viewBox="0 0 14.047 14.865">
  <path id="Path_4167" data-name="Path 4167" d="M87.992,51.944a.313.313,0,0,0,.157-.584l-8.815-5.089a.313.313,0,0,0-.313.542L87.836,51.9A.311.311,0,0,0,87.992,51.944Z" transform="translate(-76.834 -44.199)" fill="#060000"/>
  <ellipse id="Ellipse_2160" data-name="Ellipse 2160" cx="2.343" cy="2.343" rx="2.343" ry="2.343" transform="translate(0 0)" fill="#060000"/>
  <path id="Path_4168" data-name="Path 4168" d="M79.178,155.7a.311.311,0,0,0,.156-.042l8.815-5.089a.313.313,0,1,0-.313-.542l-8.815,5.089a.313.313,0,0,0,.157.584Z" transform="translate(-76.834 -142.865)" fill="#060000"/>
  <ellipse id="Ellipse_2161" data-name="Ellipse 2161" cx="2.343" cy="2.343" rx="2.343" ry="2.343" transform="translate(0 10.178)" fill="#060000"/>
  <ellipse id="Ellipse_2162" data-name="Ellipse 2162" cx="2.889" cy="2.889" rx="2.889" ry="2.889" transform="translate(8.269 4.544)" fill="#060000"/>
</svg>
